<?xml version="1.0" standalone="no"?>
<!DOCTYPE svg PUBLIC "-//W3C//DTD SVG 20010904//EN"
 "http://www.w3.org/TR/2001/REC-SVG-20010904/DTD/svg10.dtd">
<svg version="1.0" xmlns="http://www.w3.org/2000/svg"
 width="218.000000pt" height="218.000000pt" viewBox="0 0 218.000000 218.000000"
 preserveAspectRatio="xMidYMid meet">
<metadata>
Created by potrace 1.14, written by Peter Selinger 2001-2017
</metadata>
<g transform="translate(0.000000,218.000000) scale(0.100000,-0.100000)"
fill="#000000" stroke="none">
<path d="M884 2150 c-111 -25 -158 -42 -262 -94 -282 -142 -488 -394 -570
-696 -23 -85 -26 -113 -26 -270 0 -157 3 -185 26 -270 149 -549 680 -891 1234
-795 329 58 614 266 772 563 45 86 87 203 96 272 4 25 10 61 15 82 14 61 13
238 -3 326 -20 113 -66 257 -77 240 -6 -9 -9 -7 -9 8 0 33 -85 188 -138 254
-107 130 -200 201 -406 308 -16 8 -85 31 -155 50 -115 33 -139 36 -271 38
-110 1 -165 -3 -226 -16z"/>
</g>
</svg>
